# xmcd
#
# Track frame offsets:
#	150
#	15738
#	30458
#	42545
#	54929
#	68685
#	82455
#	101464
#	115241
#	128857
#	142430
#	155033
#	168706
#	182833
#	196548
#	211089
#	224257
#	238106
#	251743
#	264706
#
# Disc length: 3715 seconds
#
# Revision: 1
# Processed by: cddbd v1.4PL0 Copyright (c) Steve Scherf et al.
# Submitted via: audiograbber 1.82.01
#
DISCID=2e0e8114
DTITLE=Billie Holiday - The Essential I
DYEAR=1900
DGENRE=Oldies
TTITLE0=I Can't Give You Anything But Love
TTITLE1=Loverman
TTITLE2=Back In Your Own Backyard
TTITLE3=Your Mother's Son-In-Law
TTITLE4=Miss Brown To You
TTITLE5=On The Sunny Side Of The Street
TTITLE6=Billie's Blues
TTITLE7=I Wished On The Moon
TTITLE8=Twenty-Four Hours A Day
TTITLE9=What A Little Moonlight Can Do
TTITLE10=No More
TTITLE11=He's Funny That Way
TTITLE12=Nice Work If You Can Get It
TTITLE13=My Man - Mon Homme
TTITLE14=Lover, Come Back To Me
TTITLE15=I Must Have That Man
TTITLE16=Easy Living
TTITLE17=All Of Me
TTITLE18=You Go Straight To My Head
TTITLE19=Strange Fruit
EXTD=
EXTT0=
EXTT1=
EXTT2=
EXTT3=
EXTT4=
EXTT5=
EXTT6=
EXTT7=
EXTT8=
EXTT9=
EXTT10=
EXTT11=
EXTT12=
EXTT13=
EXTT14=
EXTT15=
EXTT16=
EXTT17=
EXTT18=
EXTT19=
PLAYORDER=
